<svg id="BACKGROUND" xmlns="http://www.w3.org/2000/svg" viewBox="0 0 751.09 502.81"><defs><style>.cls-1{fill:#fff;}.cls-2{fill:#d60b0b;}.cls-2,.cls-6{opacity:0.1;}.cls-3{fill:#ff0606;}.cls-3,.cls-5,.cls-7,.cls-9{opacity:0.4;}.cls-4{fill:#10dd54;}.cls-4,.cls-8{opacity:0.13;}.cls-5{fill:#0bf40b;}.cls-6{fill:#ffe600;}.cls-7{fill:#fff800;}.cls-8{fill:#123ddb;}.cls-9{fill:#0c3ef2;}</style></defs><title>2796312</title><rect class="cls-1" y="2.81" width="750" height="500"/><path class="cls-2" d="M355,499.52s5.29-47.56,33-48.89,39.63-9.24,44.92-25.1,25.1-48.88,68.69-43.59,63.42-1.32,79.27-19.82S606,313.24,639,315.88s51.52,10.57,66.05-5.28,21.14-48.88,44.92-48.88V500Z" transform="translate(0 2.81)"/><path class="cls-3" d="M717.28,344.9C697.21,375.24,684.72,366,653,366s-61.18,1.15-88.36,26.83-41.09,42.53-77.81,43.89C411.51,439.48,382.72,498.2,377,500H750V312.41C738.75,319.15,727.4,329.6,717.28,344.9Z" transform="translate(0 2.81)"/><path class="cls-4" d="M523.27,447.05c-12.08-4.81-48.32,12-75.5-14.44s-27.18-28.88-86.08-16.84-71-55.36-134.4-55.36-52.85,9.63-92.12-36.1-57.79-7.83-88-15.05S5.3,273.77,5.3,273.77l-4.53-2.4c-.26-.39-.51-.75-.77-1.12V500H550.46S535.35,451.87,523.27,447.05Z" transform="translate(0 2.81)"/><path class="cls-5" d="M501.59,466.18c-12.37-1.43-26.64,8.15-53.82-8.46s-27.18-18.12-86.08-10.57-71-34.74-134.4-34.74-52.85,6-92.12-22.65-44.4-9.16-81.39-3.88C23.55,390.2,5.3,358.05,5.3,358.05L.77,356.54,0,355.85V500H523.54S527.53,469.17,501.59,466.18Z" transform="translate(0 2.81)"/><path class="cls-6" d="M396.8,2s-5.64,47.52-33.39,48.63S323.7,59.57,318.3,75.39s-25.47,48.68-69,43.07-63.42.84-79.41,19.21-25.47,48.69-58.48,45.8-51.44-11-66.09,4.78S23.78,237,0,236.79L1.81-1.49Z" transform="translate(0 2.81)"/><path class="cls-7" d="M33.35,153.85c20.3-30.18,32.72-20.8,64.43-20.56s61.18-.69,88.56-26.16,41.41-42.21,78.14-43.3C339.83,61.61,369.07,3.1,374.76,1.35L1.81-1.49.39,186.1C11.69,179.44,23.12,169.08,33.35,153.85Z" transform="translate(0 2.81)"/><path class="cls-8" d="M227,52.45c12.1,4.76,48.27-12.24,75.57,14.11S329.92,95.32,388.76,83s71.22,55,134.64,54.76,52.81-9.86,92.28,35.69,57.82,7.59,88.06,14.67,42,35.3,42,35.3l4.54,2.39.78,1.11-1-229.75L199.62-.37S214.94,47.69,227,52.45Z" transform="translate(0 2.81)"/><path class="cls-9" d="M248.63,33.23C261,34.6,275.24,25,302.5,41.46s27.26,18,86.12,10.19,71.13,34.41,134.55,34.13S576,79.51,615.39,108s44.44,9,81.4,3.52c30.22-4.46,48.61,27.62,48.61,27.62l4.53,1.49c.26.24.52.45.78.68L750.07-2.81,226.54-.49S222.68,30.35,248.63,33.23Z" transform="translate(0 2.81)"/></svg>