<?xml version="1.0" encoding="utf-8"?>
<!-- Generator: Adobe Illustrator 27.5.0, SVG Export Plug-In . SVG Version: 6.00 Build 0)  -->
<svg version="1.1" xmlns="http://www.w3.org/2000/svg" xmlns:xlink="http://www.w3.org/1999/xlink" x="0px" y="0px"
	 viewBox="0 0 1200 800" style="enable-background:new 0 0 1200 800;" xml:space="preserve">
<g id="Background">
	<radialGradient id="SVGID_1_" cx="681.0636" cy="410.1976" r="689.8926" gradientUnits="userSpaceOnUse">
		<stop  offset="0.4218" style="stop-color:#F2FAFC"/>
		<stop  offset="0.5934" style="stop-color:#EEF7FA"/>
		<stop  offset="0.7525" style="stop-color:#E3EFF5"/>
		<stop  offset="0.9062" style="stop-color:#D0E2ED"/>
		<stop  offset="1" style="stop-color:#C1D7E6"/>
	</radialGradient>
	<polygon style="fill:url(#SVGID_1_);" points="0,800 0,0 1200,0 1200,800 	"/>
</g>
<g id="Graphic_Elements">
	<g>
		<defs>
			
				<rect id="SVGID_00000150815528186268117790000014046818708353492900_" x="200" y="-200" transform="matrix(6.123234e-17 -1 1 6.123234e-17 200 1000)" width="800" height="1200"/>
		</defs>
		<clipPath id="SVGID_00000064325944749919117940000013209758912521767597_">
			<use xlink:href="#SVGID_00000150815528186268117790000014046818708353492900_"  style="overflow:visible;"/>
		</clipPath>
		<g style="clip-path:url(#SVGID_00000064325944749919117940000013209758912521767597_);">
			
				<linearGradient id="SVGID_00000119801107165705030780000012777455569524465541_" gradientUnits="userSpaceOnUse" x1="1116.8982" y1="47.877" x2="-96.2326" y2="552.0648">
				<stop  offset="0" style="stop-color:#6F97C7"/>
				<stop  offset="1" style="stop-color:#6F97C7;stop-opacity:0"/>
			</linearGradient>
			<path style="fill:url(#SVGID_00000119801107165705030780000012777455569524465541_);" d="M-82.575,546.472
				c-16.192-38.785-28.655-79.141-37.031-120.348c-4.15-20.608-7.469-41.395-9.685-62.314c-2.229-20.917-3.422-41.95-3.574-62.998
				c-0.085-10.523,0.105-21.051,0.55-31.569c0.4-10.52,1.064-21.032,1.98-31.525c1.836-20.986,4.706-41.892,8.594-62.618
				c7.846-41.431,19.424-82.233,35.029-121.542c7.804-19.649,16.56-38.934,26.163-57.806c9.627-18.861,20.183-37.267,31.625-55.128
				l4.342-6.666c1.447-2.223,2.882-4.455,4.404-6.626l4.504-6.562c1.495-2.193,2.999-4.379,4.568-6.52
				c6.143-8.658,12.485-17.182,19.046-25.54c13.12-16.72,27.077-32.81,41.809-48.187c29.459-30.755,61.93-58.776,96.977-83.309
				c35.026-24.557,72.559-45.68,111.827-63.047c78.537-34.692,164.345-54.217,251.021-55.973
				c86.647-1.85,173.947,13.843,255.01,46.025c40.517,16.1,79.571,36.119,116.175,60.03c36.615,23.866,71.044,51.258,102.203,82.058
				c15.606,15.368,30.458,31.513,44.48,48.358c3.463,4.245,7.028,8.411,10.359,12.763c3.355,4.332,6.821,8.583,10.042,13.017
				l4.896,6.605l2.429,3.317l2.357,3.368l4.712,6.737l2.349,3.374l2.273,3.425c24.436,36.405,45.3,75.21,62.168,115.648
				c16.711,40.501,29.535,82.645,38.089,125.65c8.513,43.016,12.542,86.888,12.334,130.682
				c-0.537,87.615-18.928,174.872-53.393,254.963c-34.398,80.128-84.837,153.054-147.256,213.153
				c-31.178,30.08-65.385,56.88-101.749,80.078c-36.374,23.193-74.959,42.714-114.94,58.339
				c-40,15.583-81.438,27.289-123.542,34.796c-21.051,3.757-42.266,6.47-63.539,8.127c-21.274,1.652-42.605,2.252-63.893,1.868
				c-21.289-0.403-42.536-1.857-63.639-4.35c-21.101-2.512-42.064-5.996-62.796-10.472c-41.47-8.952-81.934-22.065-120.808-38.68
				c-38.864-16.671-75.961-37.224-110.861-60.889c-17.434-11.863-34.276-24.574-50.446-38.076
				c-8.086-6.75-15.999-13.701-23.748-20.827c-7.769-7.104-15.365-14.395-22.765-21.878c-14.811-14.955-28.878-30.637-42.131-46.971
				c-13.263-16.329-25.662-33.338-37.34-50.818C-46.694,622.609-66.507,585.307-82.575,546.472z M-79.547,545.213
				c16.102,38.594,35.918,75.636,59.186,110.372c23.259,34.74,49.96,67.169,79.59,96.655
				c59.233,59.014,130.231,106.098,207.523,137.915c77.279,31.846,160.818,48.411,244.377,48.23
				c41.774-0.065,83.535-4.281,124.474-12.556c40.943-8.266,81.053-20.594,119.617-36.633
				c38.546-16.082,75.54-35.873,110.232-59.111c34.695-23.229,67.082-49.896,96.53-79.487
				c58.938-59.156,105.962-130.064,137.738-207.258c31.806-77.181,48.349-160.614,48.168-244.064
				c-0.065-41.72-4.275-83.427-12.54-124.314c-8.255-40.89-20.567-80.949-36.587-119.464c-16.018-38.515-35.711-75.506-58.875-110.2
				c-23.149-34.7-49.74-67.104-79.264-96.58c-59.021-58.996-129.825-106.125-206.966-138.027
				c-77.128-31.932-160.558-48.622-244.062-48.577c-41.746-0.003-83.494,4.141-124.433,12.347
				c-40.943,8.196-81.067,20.456-119.657,36.432c-38.572,16.019-75.605,35.752-110.345,58.94
				c-34.745,23.179-67.191,49.805-96.706,79.368C-0.617-91.703-47.807-20.807-79.749,56.432
				c-31.973,77.227-48.684,160.764-48.64,244.376c-0.003,41.801,4.146,83.603,12.363,124.595
				C-107.82,466.399-95.543,506.575-79.547,545.213z"/>
		</g>
		<g style="clip-path:url(#SVGID_00000064325944749919117940000013209758912521767597_);">
			
				<linearGradient id="SVGID_00000086686570182233988960000017808264496711941563_" gradientUnits="userSpaceOnUse" x1="1641.3741" y1="448.9685" x2="1116.131" y2="1343.1113">
				<stop  offset="0" style="stop-color:#89CDE6"/>
				<stop  offset="0.0695" style="stop-color:#89CDE6;stop-opacity:0.9305"/>
				<stop  offset="1" style="stop-color:#89CDE6;stop-opacity:0"/>
			</linearGradient>
			<path style="fill:url(#SVGID_00000086686570182233988960000017808264496711941563_);" d="M1122.723,1332.016
				c-28.565-16.71-55.532-36.175-80.333-58.114c-12.376-10.993-24.326-22.48-35.642-34.579
				c-11.323-12.09-22.051-24.746-32.132-37.904c-5.045-6.575-9.92-13.283-14.63-20.106c-4.742-6.801-9.315-13.723-13.721-20.753
				c-8.809-14.06-16.93-28.563-24.327-43.436c-14.733-29.769-26.853-60.906-35.72-93.029c-8.823-32.122-14.794-65.11-17.369-98.456
				c-0.268-4.17-0.643-8.338-0.823-12.515c-0.167-4.177-0.446-8.355-0.519-12.538c-0.259-8.365-0.328-16.74-0.181-25.116
				c0.292-16.753,1.408-33.51,3.353-50.19c3.885-33.358,10.951-66.441,21.31-98.563c10.333-32.128,23.88-63.297,40.313-92.935
				c32.886-59.248,77.59-112.458,131.352-154.894c53.698-42.478,116.207-74.223,182.669-92.57
				c33.227-9.159,67.405-15.158,101.898-17.508c34.478-2.387,69.263-1.521,103.608,3.087c17.174,2.267,34.243,5.385,51.121,9.34
				c8.441,1.971,16.833,4.16,25.165,6.557c8.335,2.39,16.589,5.058,24.784,7.888c32.77,11.358,64.426,25.931,94.332,43.442
				c29.832,17.635,57.99,38.159,83.861,61.259c25.847,23.13,49.255,48.947,69.953,76.72c41.322,55.629,71.16,119.526,87.401,186.513
				c16.304,66.978,19.016,137.005,8.064,204.576c-10.907,67.597-35.577,132.541-71.304,190.104
				c-17.878,28.78-38.498,55.786-61.52,80.453c-23.001,24.69-48.457,46.959-75.682,66.611
				c-27.226,19.666-56.386,36.479-86.744,50.477c-30.377,13.982-62.086,24.851-94.437,32.785
				c-32.373,7.891-65.465,12.488-98.64,14.113c-16.591,0.783-33.212,0.752-49.782-0.095c-8.285-0.422-16.557-1.055-24.807-1.872
				c-8.253-0.792-16.486-1.783-24.686-2.988c-16.401-2.397-32.679-5.605-48.752-9.607c-16.077-3.994-31.931-8.83-47.559-14.289
				C1181.359,1362.905,1151.227,1348.829,1122.723,1332.016z M1124.174,1329.544c28.4,16.627,58.399,30.52,89.475,41.328
				c31.072,10.815,63.211,18.547,95.797,23.042c65.175,9.031,132.092,4.99,195.731-11.624
				c63.646-16.59,123.986-45.747,176.407-85.436c26.219-19.826,50.464-42.253,72.269-66.842
				c21.813-24.585,41.177-51.328,57.813-79.67c16.604-28.361,30.477-58.317,41.27-89.348c10.8-31.027,18.521-63.121,23.009-95.66
				c9.018-65.081,4.983-131.904-11.608-195.454c-16.566-63.556-45.683-123.811-85.314-176.156
				c-19.797-26.181-42.192-50.391-66.746-72.166c-24.55-21.781-51.255-41.119-79.558-57.731
				c-28.3-16.617-58.186-30.538-89.166-41.372c-30.974-10.844-63.023-18.617-95.531-23.162
				c-65.017-9.129-131.822-5.223-195.401,11.253c-63.585,16.451-123.915,45.463-176.37,85.027
				c-26.235,19.764-50.508,42.134-72.35,66.674c-21.849,24.536-41.259,51.238-57.946,79.55
				c-16.656,28.33-30.585,58.266-41.438,89.288c-10.86,31.018-18.644,63.115-23.195,95.669
				c-9.143,65.111-5.23,132.012,11.269,195.681c16.474,63.676,45.528,124.092,85.149,176.622
				c19.793,26.273,42.195,50.581,66.771,72.455C1069.082,1293.395,1095.823,1312.833,1124.174,1329.544z"/>
		</g>
		<g style="clip-path:url(#SVGID_00000064325944749919117940000013209758912521767597_);">
			
				<linearGradient id="SVGID_00000059307864535462766560000017062194701312729520_" gradientUnits="userSpaceOnUse" x1="1060.184" y1="845.4829" x2="1904.1027" y2="414.5327">
				<stop  offset="2.776000e-04" style="stop-color:#BAE6E6"/>
				<stop  offset="0.1411" style="stop-color:#BAE6E6;stop-opacity:0.8591"/>
				<stop  offset="1" style="stop-color:#BAE6E6;stop-opacity:0"/>
			</linearGradient>
			<path style="fill:url(#SVGID_00000059307864535462766560000017062194701312729520_);" d="M1891.102,421.091
				c13.734,26.737,24.9,54.807,33.201,83.718c4.113,14.463,7.693,29.089,10.475,43.881c2.795,14.788,4.859,29.72,6.182,44.725
				c0.667,7.501,1.139,15.022,1.428,22.551c0.332,7.527,0.477,15.066,0.439,22.606c-0.076,15.081-0.895,30.168-2.452,45.189
				c-3.183,30.028-8.973,59.856-17.777,88.87c-17.509,58.034-46.221,112.979-84.645,160.68
				c-19.207,23.838-40.724,45.955-64.344,65.727c-23.599,19.793-49.229,37.292-76.357,52.209
				c-54.256,29.797-114.792,49.234-177.16,55.864c-62.337,6.688-126.327,0.731-186.836-17.635
				c-30.242-9.194-59.693-21.293-87.578-36.43c-27.893-15.094-54.454-32.845-78.794-53.338
				c-12.193-10.213-23.888-21.035-35.023-32.413c-5.573-5.684-11-11.514-16.278-17.476c-5.284-5.958-10.358-12.1-15.312-18.334
				c-19.781-24.965-37.122-51.866-51.639-80.184c-14.378-28.386-26.037-58.187-34.652-88.853
				c-8.572-30.681-13.888-62.241-16.161-93.961c-4.414-63.474,4.201-127.628,24.889-187.359
				c20.628-59.759,53.302-115.064,95.256-161.628c41.943-46.602,93.137-84.257,149.072-110.734
				c27.979-13.229,57.172-23.733,87.033-31.248c14.929-3.76,30.023-6.776,45.207-9.037c15.185-2.256,30.456-3.759,45.738-4.572
				c30.573-1.621,61.2-0.074,91.342,4.165c30.151,4.269,59.765,11.596,88.429,21.426c28.66,9.883,56.226,22.659,82.415,37.686
				c13.081,7.545,25.783,15.726,38.044,24.505c6.132,4.388,12.147,8.933,18.06,13.603c5.93,4.648,11.746,9.439,17.431,14.378
				c11.379,9.868,22.266,20.295,32.606,31.229c10.349,10.929,20.104,22.398,29.409,34.21
				C1861.303,368.785,1877.496,394.29,1891.102,421.091z M1888.219,422.564c-13.62-26.562-29.796-51.81-48.298-75.223
				c-18.495-23.417-39.31-44.995-62.043-64.314c-45.449-38.671-98.599-68.193-155.368-86.499
				c-56.762-18.329-117.118-25.434-176.544-20.626c-29.711,2.386-59.18,7.722-87.836,15.9
				c-28.659,8.172-56.498,19.186-83.029,32.753c-26.516,13.597-51.719,29.744-75.091,48.213
				c-23.375,18.463-44.915,39.241-64.199,61.933c-38.603,45.368-68.072,98.424-86.346,155.094
				c-18.296,56.663-25.389,116.911-20.589,176.233c2.382,29.658,7.708,59.074,15.873,87.679
				c8.157,28.608,19.152,56.398,32.696,82.883c13.531,26.491,29.582,51.698,47.978,75.077
				c18.384,23.385,39.089,44.947,61.717,64.266c45.239,38.669,98.202,68.25,154.829,86.653
				c56.62,18.424,116.877,25.661,176.262,20.992c29.689-2.316,59.15-7.582,87.811-15.691c28.665-8.103,56.522-19.052,83.083-32.559
				c26.546-13.537,51.792-29.629,75.215-48.053c23.427-18.418,45.028-39.16,64.381-61.829
				c38.739-45.32,68.372-98.377,86.807-155.105c18.457-56.72,25.706-117.085,21.029-176.576
				c-2.321-29.743-7.596-59.256-15.72-87.969C1912.718,477.079,1901.75,449.171,1888.219,422.564z"/>
		</g>
		<g style="clip-path:url(#SVGID_00000064325944749919117940000013209758912521767597_);">
			
				<linearGradient id="SVGID_00000054953192983598966770000002940993632294157981_" gradientUnits="userSpaceOnUse" x1="402.3882" y1="-62.7395" x2="872.6663" y2="1035.7454">
				<stop  offset="2.776000e-04" style="stop-color:#BAE6E6"/>
				<stop  offset="0.1411" style="stop-color:#BAE6E6;stop-opacity:0.8591"/>
				<stop  offset="1" style="stop-color:#BAE6E6;stop-opacity:0"/>
			</linearGradient>
			<path style="fill:url(#SVGID_00000054953192983598966770000002940993632294157981_);" d="M865.519,1018.822
				c-17.416,7.473-35.192,14.114-53.251,19.873c-18.059,5.756-36.375,10.731-54.911,14.738c-18.536,3.995-37.254,7.191-56.101,9.412
				c-18.846,2.208-37.802,3.557-56.79,3.978c-75.956,1.668-152.363-11.381-223.911-38.33l-13.347-5.236l-13.221-5.563l-13.108-5.845
				c-4.322-2.051-8.672-4.054-12.977-6.15c-17.207-8.414-34.023-17.678-50.364-27.756l-6.1-3.826
				c-2.034-1.275-4.077-2.54-6.066-3.884l-6.01-3.975c-2.008-1.319-4.01-2.648-5.973-4.033c-7.939-5.419-15.76-11.022-23.438-16.828
				c-15.356-11.608-30.163-23.99-44.34-37.091c-14.158-13.119-27.774-26.875-40.668-41.321
				c-12.898-14.441-25.1-29.543-36.542-45.233c-22.891-31.377-42.723-65.114-59.179-100.515
				c-32.865-70.801-52.161-148.618-55.187-227.65c-1.481-39.493,0.817-79.261,7.297-118.442
				c6.426-39.18,16.62-77.858,30.811-115.119c14.141-37.268,31.892-73.273,53.251-107.109
				c10.632-16.946,22.187-33.326,34.501-49.127c12.302-15.814,25.457-30.977,39.329-45.466c3.503-3.587,6.925-7.259,10.537-10.74
				c3.592-3.5,7.101-7.091,10.806-10.475c3.686-3.404,7.298-6.891,11.088-10.181c3.769-3.312,7.467-6.71,11.338-9.905
				c15.277-13.026,31.212-25.295,47.755-36.686c33.038-22.857,68.432-42.28,105.299-58.114c18.46-7.859,37.306-14.838,56.455-20.884
				c19.157-6.02,38.625-11.059,58.285-15.152c39.333-8.133,79.483-12.308,119.596-12.343c20.056-0.056,40.102,0.948,60.032,2.946
				c9.965,0.993,19.901,2.241,29.8,3.716c2.479,0.339,4.945,0.759,7.411,1.184l7.398,1.259c2.469,0.397,4.922,0.889,7.376,1.368
				l7.362,1.436c4.907,0.956,9.773,2.112,14.658,3.162c4.878,1.086,9.715,2.349,14.571,3.519c4.844,1.221,9.643,2.615,14.462,3.918
				c4.804,1.362,9.571,2.851,14.354,4.274c19.063,5.931,37.818,12.788,56.178,20.534c73.427,31.045,140.223,76.866,195.232,133.617
				c55.057,56.741,98.069,124.358,126.614,196.987c14.26,36.329,24.988,73.953,31.898,112.162
				c3.458,19.103,5.967,38.351,7.518,57.645c1.544,19.296,2.133,38.637,1.854,57.934c-0.302,19.297-1.559,38.553-3.755,57.674
				c-1.092,9.561-2.448,19.085-3.985,28.571c-0.344,2.377-0.77,4.742-1.199,7.106l-1.271,7.091c-0.4,2.367-0.895,4.717-1.375,7.069
				l-1.44,7.054c-7.939,37.57-19.681,74.204-34.492,109.428c-29.875,70.367-73.138,134.675-126.768,188.49
				c-13.412,13.448-27.465,26.24-42.071,38.352c-14.616,12.103-29.844,23.446-45.529,34.102
				c-15.692,10.648-31.935,20.467-48.563,29.564C900.022,1003.098,882.948,1011.377,865.519,1018.822z M863.913,1015.07
				c34.586-14.856,67.74-33.041,98.786-54.311c31.05-21.261,59.987-45.6,86.249-72.547c52.561-53.87,94.275-118.222,122.188-188.097
				c27.938-69.871,41.933-145.252,40.921-220.438c-0.49-37.592-4.714-75.125-12.583-111.875
				c-7.86-36.753-19.366-72.712-34.193-107.24c-14.866-34.511-33.051-67.584-54.31-98.547
				c-21.251-30.967-45.569-59.819-72.484-85.995c-26.911-26.181-56.413-49.687-87.917-70.091
				c-31.497-20.42-65.013-37.694-99.848-51.646c-69.69-27.87-144.858-41.959-219.887-41.012
				c-37.51,0.451-74.969,4.628-111.653,12.443c-36.688,7.807-72.591,19.254-107.073,34.02
				c-34.479,14.773-67.547,32.842-98.518,54.003c-30.975,21.15-59.852,45.373-86.068,72.203
				c-52.471,53.636-94.157,117.752-122.092,187.416c-13.949,34.836-24.565,71.015-31.537,107.897
				c-6.979,36.879-10.333,74.45-9.963,111.992c0.363,37.542,4.456,75.052,12.195,111.803c7.731,36.754,19.111,72.74,33.822,107.316
				c14.75,34.56,32.828,67.705,53.997,98.76c21.161,31.058,45.404,60.021,72.266,86.322
				c53.706,52.628,117.912,94.526,187.75,122.542c69.827,28.031,145.184,42.263,220.443,41.412
				c37.625-0.403,75.21-4.543,112.025-12.336C793.25,1041.281,829.292,1029.842,863.913,1015.07z"/>
		</g>
	</g>
</g>
</svg>
